<mxfile host="app.diagrams.net" modified="2024-06-21T14:11:50.369Z" agent="Mozilla/5.0 (Macintosh; Intel Mac OS X 10_15_7) AppleWebKit/537.36 (KHTML, like Gecko) Chrome/125.0.0.0 Safari/537.36" etag="JTeYyE-VoxiqIGr3kCxa" version="24.5.5" type="device">
  <diagram name="Page-1" id="UdD4ztDgz2I_NVY4R31c">
    <mxGraphModel dx="1434" dy="795" grid="1" gridSize="10" guides="1" tooltips="1" connect="1" arrows="1" fold="1" page="1" pageScale="1" pageWidth="850" pageHeight="1100" math="0" shadow="0">
      <root>
        <mxCell id="0" />
        <mxCell id="1" parent="0" />
        <mxCell id="-jj2-kmlk1bn1maKEULx-25" value="&lt;font style=&quot;font-size: 10px;&quot;&gt;System prompt&amp;nbsp;&lt;span style=&quot;background-color: initial;&quot;&gt;(classification)&lt;/span&gt;&lt;/font&gt;&lt;div&gt;&lt;div&gt;&lt;br&gt;&lt;/div&gt;&lt;div&gt;&lt;br&gt;&lt;/div&gt;&lt;/div&gt;" style="rounded=1;whiteSpace=wrap;html=1;fillColor=#b1ddf0;strokeColor=#10739e;" vertex="1" parent="1">
          <mxGeometry x="600" y="306" width="160" height="60" as="geometry" />
        </mxCell>
        <mxCell id="-jj2-kmlk1bn1maKEULx-14" value="2" style="edgeStyle=orthogonalEdgeStyle;rounded=0;orthogonalLoop=1;jettySize=auto;html=1;entryX=0.01;entryY=0.368;entryDx=0;entryDy=0;entryPerimeter=0;" edge="1" parent="1" target="-jj2-kmlk1bn1maKEULx-6">
          <mxGeometry relative="1" as="geometry">
            <mxPoint x="275" y="391" as="sourcePoint" />
            <mxPoint x="470" y="415.0000000000001" as="targetPoint" />
            <Array as="points" />
          </mxGeometry>
        </mxCell>
        <UserObject label="Streamlit&lt;br&gt;app.py" id="-jj2-kmlk1bn1maKEULx-3">
          <mxCell style="image;aspect=fixed;html=1;points=[];align=center;fontSize=12;image=img/lib/azure2/app_services/App_Service_Domains.svg;" vertex="1" parent="1">
            <mxGeometry x="170" y="365" width="95" height="76" as="geometry" />
          </mxCell>
        </UserObject>
        <mxCell id="-jj2-kmlk1bn1maKEULx-4" value="User" style="sketch=0;outlineConnect=0;fontColor=#232F3E;gradientColor=none;fillColor=#232F3D;strokeColor=none;dashed=0;verticalLabelPosition=bottom;verticalAlign=top;align=center;html=1;fontSize=12;fontStyle=0;aspect=fixed;pointerEvents=1;shape=mxgraph.aws4.user;" vertex="1" parent="1">
          <mxGeometry x="20" y="366" width="74" height="74" as="geometry" />
        </mxCell>
        <mxCell id="-jj2-kmlk1bn1maKEULx-5" value="Amazon Bedrock" style="sketch=0;points=[[0,0,0],[0.25,0,0],[0.5,0,0],[0.75,0,0],[1,0,0],[0,1,0],[0.25,1,0],[0.5,1,0],[0.75,1,0],[1,1,0],[0,0.25,0],[0,0.5,0],[0,0.75,0],[1,0.25,0],[1,0.5,0],[1,0.75,0]];outlineConnect=0;fontColor=#232F3E;fillColor=#01A88D;strokeColor=#ffffff;dashed=0;verticalLabelPosition=bottom;verticalAlign=top;align=center;html=1;fontSize=12;fontStyle=0;aspect=fixed;shape=mxgraph.aws4.resourceIcon;resIcon=mxgraph.aws4.bedrock;" vertex="1" parent="1">
          <mxGeometry x="790" y="362" width="84" height="84" as="geometry" />
        </mxCell>
        <mxCell id="-jj2-kmlk1bn1maKEULx-21" value="3" style="edgeStyle=orthogonalEdgeStyle;rounded=0;orthogonalLoop=1;jettySize=auto;html=1;exitX=1;exitY=0.25;exitDx=0;exitDy=0;" edge="1" parent="1" source="-jj2-kmlk1bn1maKEULx-6">
          <mxGeometry relative="1" as="geometry">
            <mxPoint x="780" y="379.21212121212125" as="targetPoint" />
          </mxGeometry>
        </mxCell>
        <mxCell id="-jj2-kmlk1bn1maKEULx-6" value="task_classification.py" style="shape=image;html=1;verticalAlign=top;verticalLabelPosition=bottom;labelBackgroundColor=#ffffff;imageAspect=0;aspect=fixed;image=https://cdn1.iconfinder.com/data/icons/DarkGlass_Reworked/128x128/mimetypes/source_py.png" vertex="1" parent="1">
          <mxGeometry x="470" y="355" width="98" height="98" as="geometry" />
        </mxCell>
        <mxCell id="-jj2-kmlk1bn1maKEULx-13" value="1" style="edgeStyle=orthogonalEdgeStyle;rounded=0;orthogonalLoop=1;jettySize=auto;html=1;entryX=0.011;entryY=0.487;entryDx=0;entryDy=0;entryPerimeter=0;" edge="1" parent="1" source="-jj2-kmlk1bn1maKEULx-4" target="-jj2-kmlk1bn1maKEULx-3">
          <mxGeometry relative="1" as="geometry" />
        </mxCell>
        <mxCell id="-jj2-kmlk1bn1maKEULx-16" value="5" style="edgeStyle=orthogonalEdgeStyle;rounded=0;orthogonalLoop=1;jettySize=auto;html=1;exitX=0;exitY=0.75;exitDx=0;exitDy=0;entryX=0.983;entryY=0.832;entryDx=0;entryDy=0;entryPerimeter=0;" edge="1" parent="1" source="-jj2-kmlk1bn1maKEULx-6" target="-jj2-kmlk1bn1maKEULx-3">
          <mxGeometry relative="1" as="geometry">
            <mxPoint x="280" y="428" as="targetPoint" />
          </mxGeometry>
        </mxCell>
        <mxCell id="-jj2-kmlk1bn1maKEULx-20" value="4" style="edgeStyle=orthogonalEdgeStyle;rounded=0;orthogonalLoop=1;jettySize=auto;html=1;exitX=0;exitY=0.75;exitDx=0;exitDy=0;exitPerimeter=0;entryX=1.018;entryY=0.708;entryDx=0;entryDy=0;entryPerimeter=0;" edge="1" parent="1" source="-jj2-kmlk1bn1maKEULx-5" target="-jj2-kmlk1bn1maKEULx-6">
          <mxGeometry relative="1" as="geometry" />
        </mxCell>
        <mxCell id="-jj2-kmlk1bn1maKEULx-22" value="User generated prompt" style="rounded=1;whiteSpace=wrap;html=1;fillColor=#dae8fc;strokeColor=#6c8ebf;" vertex="1" parent="1">
          <mxGeometry x="300" y="340" width="150" height="26" as="geometry" />
        </mxCell>
        <mxCell id="-jj2-kmlk1bn1maKEULx-23" value="User generated prompt" style="rounded=1;whiteSpace=wrap;html=1;fillColor=#dae8fc;strokeColor=#6c8ebf;" vertex="1" parent="1">
          <mxGeometry x="605" y="336" width="150" height="26" as="geometry" />
        </mxCell>
        <mxCell id="-jj2-kmlk1bn1maKEULx-26" value="&lt;span&gt;&lt;/span&gt;&lt;span style=&quot;white-space-collapse: preserve;&quot;&gt;Display modal/visual &lt;br&gt;confirmation of chosen task&lt;/span&gt;" style="rounded=1;whiteSpace=wrap;html=1;fillColor=#fff2cc;strokeColor=#d6b656;" vertex="1" parent="1">
          <mxGeometry x="150" y="500" width="150" height="37" as="geometry" />
        </mxCell>
        <mxCell id="-jj2-kmlk1bn1maKEULx-29" value="&lt;div&gt;&lt;span style=&quot;white-space-collapse: preserve;&quot;&gt;&lt;font style=&quot;font-size: 12px;&quot;&gt;&lt;br&gt;&lt;/font&gt;&lt;/span&gt;&lt;/div&gt;&lt;span&gt;&lt;/span&gt;&lt;span style=&quot;white-space-collapse: preserve;&quot;&gt;&lt;font style=&quot;font-size: 12px;&quot;&gt;&lt;div&gt;&lt;span style=&quot;white-space-collapse: preserve;&quot;&gt;&lt;font style=&quot;font-size: 12px;&quot;&gt;&lt;br&gt;&lt;/font&gt;&lt;/span&gt;&lt;/div&gt;&lt;div&gt;&lt;span style=&quot;white-space-collapse: preserve;&quot;&gt;&lt;font style=&quot;font-size: 12px;&quot;&gt;&lt;br&gt;&lt;/font&gt;&lt;/span&gt;&lt;/div&gt;&lt;div&gt;&lt;span style=&quot;white-space-collapse: preserve;&quot;&gt;&lt;font style=&quot;font-size: 12px;&quot;&gt;&lt;br&gt;&lt;/font&gt;&lt;/span&gt;&lt;/div&gt;&lt;div&gt;&lt;span style=&quot;white-space-collapse: preserve;&quot;&gt;&lt;font style=&quot;font-size: 12px;&quot;&gt;&lt;br&gt;&lt;/font&gt;&lt;/span&gt;&lt;/div&gt;&lt;div&gt;&lt;span style=&quot;white-space-collapse: preserve;&quot;&gt;&lt;font style=&quot;font-size: 12px;&quot;&gt;&lt;br&gt;&lt;/font&gt;&lt;/span&gt;&lt;/div&gt;Custom downstream implementations to handle tasks&lt;/font&gt;&lt;/span&gt;" style="rounded=1;whiteSpace=wrap;html=1;fillColor=#e1d5e7;strokeColor=#9673a6;" vertex="1" parent="1">
          <mxGeometry x="270" y="590" width="440" height="147" as="geometry" />
        </mxCell>
        <mxCell id="-jj2-kmlk1bn1maKEULx-31" value="" style="group" vertex="1" connectable="0" parent="1">
          <mxGeometry x="439" y="480" width="160" height="98" as="geometry" />
        </mxCell>
        <mxCell id="-jj2-kmlk1bn1maKEULx-30" value="&lt;div&gt;Output&lt;/div&gt;&lt;div&gt;&lt;br&gt;&lt;/div&gt;&lt;div&gt;&lt;br&gt;&lt;/div&gt;&lt;div&gt;&lt;br&gt;&lt;/div&gt;&lt;div&gt;&lt;br&gt;&lt;/div&gt;&lt;div&gt;&lt;br&gt;&lt;/div&gt;" style="rounded=1;whiteSpace=wrap;html=1;fillColor=#fad7ac;strokeColor=#b46504;" vertex="1" parent="-jj2-kmlk1bn1maKEULx-31">
          <mxGeometry width="160" height="98" as="geometry" />
        </mxCell>
        <mxCell id="-jj2-kmlk1bn1maKEULx-27" value="&lt;span&gt;&lt;/span&gt;&lt;span style=&quot;white-space-collapse: preserve;&quot;&gt;1. Task classification&lt;/span&gt;" style="rounded=1;whiteSpace=wrap;html=1;fillColor=#fff2cc;strokeColor=#d6b656;" vertex="1" parent="-jj2-kmlk1bn1maKEULx-31">
          <mxGeometry x="5" y="23" width="150" height="27" as="geometry" />
        </mxCell>
        <mxCell id="-jj2-kmlk1bn1maKEULx-28" value="&lt;span&gt;&lt;/span&gt;&lt;span style=&quot;white-space-collapse: preserve;&quot;&gt;2. Processed workflow summary from input&lt;/span&gt;" style="rounded=1;whiteSpace=wrap;html=1;fillColor=#fff2cc;strokeColor=#d6b656;" vertex="1" parent="-jj2-kmlk1bn1maKEULx-31">
          <mxGeometry x="5" y="55" width="150" height="37" as="geometry" />
        </mxCell>
        <mxCell id="-jj2-kmlk1bn1maKEULx-36" value="" style="outlineConnect=0;dashed=0;verticalLabelPosition=bottom;verticalAlign=top;align=center;html=1;shape=mxgraph.aws3.rds;fillColor=#2E73B8;gradientColor=none;" vertex="1" parent="1">
          <mxGeometry x="293.65" y="620" width="53.33" height="60" as="geometry" />
        </mxCell>
        <mxCell id="-jj2-kmlk1bn1maKEULx-41" style="edgeStyle=orthogonalEdgeStyle;rounded=0;orthogonalLoop=1;jettySize=auto;html=1;" edge="1" parent="1" source="-jj2-kmlk1bn1maKEULx-38" target="-jj2-kmlk1bn1maKEULx-36">
          <mxGeometry relative="1" as="geometry" />
        </mxCell>
        <mxCell id="-jj2-kmlk1bn1maKEULx-38" value="" style="outlineConnect=0;dashed=0;verticalLabelPosition=bottom;verticalAlign=top;align=center;html=1;shape=mxgraph.aws3.lambda;fillColor=#F58534;gradientColor=none;" vertex="1" parent="1">
          <mxGeometry x="389.65" y="620" width="49.35" height="60" as="geometry" />
        </mxCell>
        <mxCell id="-jj2-kmlk1bn1maKEULx-42" value="" style="outlineConnect=0;dashed=0;verticalLabelPosition=bottom;verticalAlign=top;align=center;html=1;shape=mxgraph.aws3.ses;fillColor=#D9A741;gradientColor=none;" vertex="1" parent="1">
          <mxGeometry x="493.35" y="620" width="51.29" height="60" as="geometry" />
        </mxCell>
        <mxCell id="-jj2-kmlk1bn1maKEULx-44" value="Search" style="html=1;whiteSpace=wrap;strokeColor=none;fillColor=#0079D6;labelPosition=center;verticalLabelPosition=middle;verticalAlign=top;align=center;fontSize=12;outlineConnect=0;spacingTop=-6;fontColor=#FFFFFF;sketch=0;shape=mxgraph.sitemap.search;" vertex="1" parent="1">
          <mxGeometry x="600" y="625" width="85.71" height="50" as="geometry" />
        </mxCell>
        <mxCell id="-jj2-kmlk1bn1maKEULx-47" style="edgeStyle=orthogonalEdgeStyle;rounded=0;orthogonalLoop=1;jettySize=auto;html=1;" edge="1" parent="1" source="-jj2-kmlk1bn1maKEULx-28" target="-jj2-kmlk1bn1maKEULx-42">
          <mxGeometry relative="1" as="geometry" />
        </mxCell>
        <mxCell id="-jj2-kmlk1bn1maKEULx-49" style="edgeStyle=orthogonalEdgeStyle;rounded=0;orthogonalLoop=1;jettySize=auto;html=1;exitX=0;exitY=0.5;exitDx=0;exitDy=0;entryX=1.067;entryY=0.441;entryDx=0;entryDy=0;entryPerimeter=0;" edge="1" parent="1" source="-jj2-kmlk1bn1maKEULx-27" target="-jj2-kmlk1bn1maKEULx-26">
          <mxGeometry relative="1" as="geometry" />
        </mxCell>
        <mxCell id="-jj2-kmlk1bn1maKEULx-50" style="edgeStyle=orthogonalEdgeStyle;rounded=0;orthogonalLoop=1;jettySize=auto;html=1;exitX=0.25;exitY=1;exitDx=0;exitDy=0;" edge="1" parent="1" source="-jj2-kmlk1bn1maKEULx-28" target="-jj2-kmlk1bn1maKEULx-38">
          <mxGeometry relative="1" as="geometry" />
        </mxCell>
        <mxCell id="-jj2-kmlk1bn1maKEULx-51" style="edgeStyle=orthogonalEdgeStyle;rounded=0;orthogonalLoop=1;jettySize=auto;html=1;exitX=0.75;exitY=1;exitDx=0;exitDy=0;entryX=0.5;entryY=0;entryDx=0;entryDy=0;entryPerimeter=0;" edge="1" parent="1" source="-jj2-kmlk1bn1maKEULx-28" target="-jj2-kmlk1bn1maKEULx-44">
          <mxGeometry relative="1" as="geometry" />
        </mxCell>
        <mxCell id="-jj2-kmlk1bn1maKEULx-52" value="" style="rounded=0;whiteSpace=wrap;html=1;" vertex="1" parent="1">
          <mxGeometry x="20" y="560" width="130" height="100" as="geometry" />
        </mxCell>
        <mxCell id="-jj2-kmlk1bn1maKEULx-53" value="Input" style="rounded=1;whiteSpace=wrap;html=1;fillColor=#dae8fc;strokeColor=#6c8ebf;" vertex="1" parent="1">
          <mxGeometry x="30" y="570" width="110" height="20" as="geometry" />
        </mxCell>
        <mxCell id="-jj2-kmlk1bn1maKEULx-54" value="Output" style="rounded=1;whiteSpace=wrap;html=1;fillColor=#fff2cc;strokeColor=#d6b656;" vertex="1" parent="1">
          <mxGeometry x="30" y="600" width="110" height="20" as="geometry" />
        </mxCell>
        <mxCell id="-jj2-kmlk1bn1maKEULx-55" value="Not implemented" style="rounded=1;whiteSpace=wrap;html=1;fillColor=#e1d5e7;strokeColor=#9673a6;" vertex="1" parent="1">
          <mxGeometry x="30" y="630" width="110" height="20" as="geometry" />
        </mxCell>
      </root>
    </mxGraphModel>
  </diagram>
</mxfile>
